<?xml version="1.0" encoding="UTF-8" standalone="no"?>
<!-- Created with Inkscape (http://www.inkscape.org/) -->

<svg
   xmlns:dc="http://purl.org/dc/elements/1.1/"
   xmlns:cc="http://creativecommons.org/ns#"
   xmlns:rdf="http://www.w3.org/1999/02/22-rdf-syntax-ns#"
   xmlns:svg="http://www.w3.org/2000/svg"
   xmlns="http://www.w3.org/2000/svg"
   xmlns:sodipodi="http://sodipodi.sourceforge.net/DTD/sodipodi-0.dtd"
   xmlns:inkscape="http://www.inkscape.org/namespaces/inkscape"
   width="14.393333mm"
   height="14.393333mm"
   viewBox="0 0 14.393333 14.393333"
   version="1.1"
   id="svg5376"
   inkscape:version="0.92.5 (2060ec1f9f, 2020-04-08)"
   sodipodi:docname="dd.svg">
  <defs
     id="defs5370" />
  <sodipodi:namedview
     id="base"
     pagecolor="#ffffff"
     bordercolor="#666666"
     borderopacity="1.0"
     inkscape:pageopacity="0.0"
     inkscape:pageshadow="2"
     inkscape:zoom="11.2"
     inkscape:cx="14.725293"
     inkscape:cy="33.345694"
     inkscape:document-units="mm"
     inkscape:current-layer="g1681"
     showgrid="false"
     fit-margin-top="0"
     fit-margin-left="0"
     fit-margin-right="0"
     fit-margin-bottom="0"
     inkscape:window-width="1916"
     inkscape:window-height="1034"
     inkscape:window-x="0"
     inkscape:window-y="22"
     inkscape:window-maximized="0" />
  <metadata
     id="metadata5373">
    <rdf:RDF>
      <cc:Work
         rdf:about="">
        <dc:format>image/svg+xml</dc:format>
        <dc:type
           rdf:resource="http://purl.org/dc/dcmitype/StillImage" />
        <dc:title></dc:title>
      </cc:Work>
    </rdf:RDF>
  </metadata>
  <g
     inkscape:label="Calque 1"
     inkscape:groupmode="layer"
     id="layer1"
     transform="translate(-97.880714,-95.523571)">
    <g
       transform="matrix(0.52916667,0,0,0.52916667,-15.57262,76.526488)"
       id="g1681">
      <circle
         id="circle827"
         r="13.3"
         cx="228"
         cy="49.5"
         style="fill:#aeaead;stroke:#666666;stroke-width:0.60000002;fill-opacity:1" />
      <g
         id="g1003"
         transform="translate(-0.43231029,-0.14715187)">
        <g
           id="g998"
           transform="matrix(0.63211459,0,0,0.63211459,79.430414,35.534736)">
          <g
             aria-label="DD"
             style="font-style:normal;font-weight:normal;font-size:20px;line-height:1.25;font-family:sans-serif;letter-spacing:0px;word-spacing:0px;fill:#ffffff;fill-opacity:1;stroke:none;stroke-width:0.5"
             id="text994">
            <g
               id="g1667">
              <path
                 id="path1660"
                 style="font-style:normal;font-variant:normal;font-weight:bold;font-stretch:normal;font-family:Arial;-inkscape-font-specification:'Arial Bold';fill:#ffffff;fill-opacity:1;stroke-width:0.5"
                 d="m 222.4971,15.167521 h 5.2832 q 1.78711,0 2.72461,0.273437 1.25977,0.371094 2.15821,1.318359 0.89843,0.947266 1.36718,2.324219 0.46875,1.367188 0.46875,3.378906 0,1.767579 -0.43945,3.046875 -0.53711,1.5625 -1.5332,2.529297 -0.75196,0.732422 -2.03125,1.142578 -0.95703,0.302735 -2.5586,0.302735 h -5.43945 z m 2.89063,2.421875 v 9.482421 h 2.1582 q 1.21094,0 1.74805,-0.136718 0.70312,-0.175782 1.16211,-0.595703 0.46875,-0.419922 0.76171,-1.376954 0.29297,-0.966796 0.29297,-2.626953 0,-1.660156 -0.29297,-2.548828 -0.29296,-0.888672 -0.82031,-1.386719 -0.52734,-0.498046 -1.33789,-0.673828 -0.60547,-0.136718 -2.37305,-0.136718 z"
                 inkscape:connector-curvature="0" />
              <path
                 id="path1662"
                 style="font-style:normal;font-variant:normal;font-weight:bold;font-stretch:normal;font-family:Arial;-inkscape-font-specification:'Arial Bold';fill:#ffffff;fill-opacity:1;stroke-width:0.5"
                 d="m 236.94046,15.167521 h 5.2832 q 1.78711,0 2.72461,0.273437 1.25977,0.371094 2.15821,1.318359 0.89843,0.947266 1.36718,2.324219 0.46875,1.367188 0.46875,3.378906 0,1.767579 -0.43945,3.046875 -0.53711,1.5625 -1.5332,2.529297 -0.75196,0.732422 -2.03125,1.142578 -0.95703,0.302735 -2.5586,0.302735 h -5.43945 z m 2.89063,2.421875 v 9.482421 h 2.1582 q 1.21094,0 1.74805,-0.136718 0.70312,-0.175782 1.1621,-0.595703 0.46875,-0.419922 0.76172,-1.376954 0.29297,-0.966796 0.29297,-2.626953 0,-1.660156 -0.29297,-2.548828 -0.29297,-0.888672 -0.82031,-1.386719 -0.52734,-0.498046 -1.33789,-0.673828 -0.60547,-0.136718 -2.37305,-0.136718 z"
                 inkscape:connector-curvature="0" />
            </g>
          </g>
        </g>
      </g>
    </g>
  </g>
</svg>
