<?xml version="1.0" encoding="UTF-8" standalone="no"?>
<!-- Created with Inkscape (http://www.inkscape.org/) -->

<svg
   xmlns:dc="http://purl.org/dc/elements/1.1/"
   xmlns:cc="http://creativecommons.org/ns#"
   xmlns:rdf="http://www.w3.org/1999/02/22-rdf-syntax-ns#"
   xmlns:svg="http://www.w3.org/2000/svg"
   xmlns="http://www.w3.org/2000/svg"
   xmlns:sodipodi="http://sodipodi.sourceforge.net/DTD/sodipodi-0.dtd"
   xmlns:inkscape="http://www.inkscape.org/namespaces/inkscape"
   width="14.393333mm"
   height="14.393333mm"
   viewBox="0 0 14.393333 14.393333"
   version="1.1"
   id="svg4167"
   inkscape:version="0.92.5 (2060ec1f9f, 2020-04-08)"
   sodipodi:docname="vu.svg">
  <defs
     id="defs4161" />
  <sodipodi:namedview
     id="base"
     pagecolor="#ffffff"
     bordercolor="#666666"
     borderopacity="1.0"
     inkscape:pageopacity="0.0"
     inkscape:pageshadow="2"
     inkscape:zoom="0.35"
     inkscape:cx="-1007.0857"
     inkscape:cy="-407.08571"
     inkscape:document-units="mm"
     inkscape:current-layer="layer1"
     showgrid="false"
     fit-margin-top="0"
     fit-margin-left="0"
     fit-margin-right="0"
     fit-margin-bottom="0"
     inkscape:window-width="1920"
     inkscape:window-height="1080"
     inkscape:window-x="0"
     inkscape:window-y="0"
     inkscape:window-maximized="0" />
  <metadata
     id="metadata4164">
    <rdf:RDF>
      <cc:Work
         rdf:about="">
        <dc:format>image/svg+xml</dc:format>
        <dc:type
           rdf:resource="http://purl.org/dc/dcmitype/StillImage" />
        <dc:title></dc:title>
      </cc:Work>
    </rdf:RDF>
  </metadata>
  <g
     inkscape:label="Calque 1"
     inkscape:groupmode="layer"
     id="layer1"
     transform="translate(-192.37476,-26.731905)">
    <g
       transform="matrix(0.52916667,0,0,0.52916667,114.37559,7.7348213)"
       id="g1673">
      <circle
         id="circle823"
         r="13.3"
         cx="161"
         cy="49.5"
         style="fill:#cc9900;stroke:#666666;stroke-width:0.60000002" />
      <path
         style="fill:#ffffcc"
         inkscape:connector-curvature="0"
         d="m 155,54.1 -3.29,-8.93 h 2.01 l 2.33,6.61 2.25,-6.61 h 1.97 l -3.29,8.93 z m 6.22,-8.93 h 1.86 v 4.84 c 0,0.768 0.0231,1.27 0.0691,1.49 0.0795,0.366 0.269,0.659 0.568,0.881 0.299,0.222 0.708,0.332 1.23,0.332 0.527,10e-7 0.924,-0.105 1.19,-0.314 0.268,-0.209 0.429,-0.466 0.483,-0.771 0.0543,-0.305 0.0816,-0.811 0.0816,-1.52 v -4.94 h 1.86 v 4.69 c 0,1.07 -0.0502,1.83 -0.151,2.27 -0.1,0.443 -0.286,0.817 -0.555,1.12 -0.27,0.305 -0.631,0.548 -1.08,0.728 -0.449,0.18 -1.04,0.271 -1.77,0.271 -0.878,0 -1.54,-0.0985 -2,-0.296 -0.454,-0.197 -0.813,-0.453 -1.08,-0.768 -0.264,-0.315 -0.437,-0.645 -0.521,-0.99 -0.121,-0.512 -0.182,-1.27 -0.182,-2.27 z"
         id="path839" />
    </g>
  </g>
</svg>
